<!--?xml version="1.0" encoding="utf-8"?-->
<!-- Generator: Adobe Illustrator 15.1.0, SVG Export Plug-In . SVG Version: 6.00 Build 0)  -->

<svg version="1.1" id="_x32_" xmlns="http://www.w3.org/2000/svg" xmlns:xlink="http://www.w3.org/1999/xlink" x="0px" y="0px" width="512px" height="512px" viewBox="0 0 512 512" style="width: 64px; height: 64px; opacity: 1;" xml:space="preserve">
<style type="text/css">

	.st0{fill:#4B4B4B;}

</style>
<g>
	<path class="st0" d="M437.031,74.984C390.781,28.688,326.609,0,256,0C185.406,0,121.219,28.688,74.984,74.984
		C28.688,121.219-0.016,185.406,0,256c-0.016,70.609,28.703,134.781,74.984,181.031C121.219,483.297,185.406,512,256,512
		c70.609,0,134.781-28.703,181.031-74.969C483.313,390.781,512.016,326.609,512,256C512.016,185.406,483.313,121.219,437.031,74.984
		z M397.422,397.406C361.156,433.656,311.313,455.969,256,456c-55.313-0.031-105.141-22.344-141.422-58.594
		C78.344,361.141,56.016,311.313,56,256c0.016-55.313,22.344-105.125,58.578-141.406C150.859,78.344,200.688,56.031,256,56
		c55.313,0.031,105.156,22.344,141.422,58.594C433.656,150.859,455.984,200.688,456,256
		C455.984,311.313,433.656,361.141,397.422,397.406z" style="fill: rgb(252, 252, 252);"></path>
	<polygon class="st0" points="244.094,147.875 244.953,147.031 244.953,109.672 245.391,109.672 266.484,147.031 267.969,147.875 
		278.375,147.875 279.25,147.031 279.25,89.281 278.375,88.406 268.5,88.406 267.625,89.281 267.625,126.719 267.188,126.719 
		246.188,89.281 244.688,88.406 234.203,88.406 233.344,89.281 233.344,147.031 234.203,147.875 	" style="fill: rgb(252, 252, 252);"></polygon>
	<path class="st0" d="M260.578,386.75l-3.141-0.438c-6.813-0.969-9.25-3.156-9.25-6.563c0-3.75,2.688-6.469,7.938-6.469
		c4.906,0,9.281,1.563,13.828,4.531l1.219-0.25l5.359-7.969l-0.203-1.297c-4.969-3.859-12.328-6.234-20.203-6.234
		c-12.844,0-21.094,7.281-21.094,18.219c0,10.5,6.75,16.188,18.813,17.844l3.156,0.438c7.094,0.938,9.188,3.156,9.188,6.656
		c0,4.188-3.5,7.063-9.703,7.063c-6.297,0-11.641-2.969-15.578-6.125l-1.313,0.109l-6.656,7.609l0.094,1.5
		c4.656,4.438,13.656,8.109,22.922,8.109c15.406,0,23.359-7.953,23.359-18.703C279.313,394,272.844,388.406,260.578,386.75z" style="fill: rgb(252, 252, 252);"></path>
	<polygon class="st0" points="394.531,229.563 387.688,229.563 386.656,230.344 377.531,264 377.375,264 369.641,230.344 
		368.688,229.563 358.531,229.563 357.906,230.344 371.766,282.344 372.719,283.156 380.594,283.156 381.609,282.344 391,249.031 
		391.156,249.031 400.438,282.344 401.484,283.156 409.344,283.156 410.375,282.344 424.156,230.344 423.516,229.563 
		413.438,229.563 412.5,230.344 405.078,264 404.922,264 395.469,230.344 	" style="fill: rgb(252, 252, 252);"></polygon>
	<polygon class="st0" points="87.281,226.281 86.391,227.156 86.391,284.875 87.281,285.75 125.422,285.75 126.281,284.875 
		126.281,275.5 125.422,274.625 99.781,274.625 99.266,274.094 99.266,261.781 99.781,261.25 121.125,261.25 122,260.375 
		122,251.125 121.125,250.219 99.781,250.219 99.266,249.719 99.266,237.875 99.781,237.375 125.422,237.375 126.281,236.5 
		126.281,227.156 125.422,226.281 	" style="fill: rgb(252, 252, 252);"></polygon>
	<path class="st0" d="M361.859,150.156c-1.453-1.469-3.734-1.688-5.484-0.594L230.5,230.5l-80.938,125.875
		c-1.094,1.719-0.859,4,0.594,5.469c1.469,1.469,3.75,1.688,5.469,0.594l125.906-80.906l80.906-125.906
		C363.563,153.875,363.313,151.625,361.859,150.156z M266.953,266.938c-6.047,6.063-15.844,6.063-21.891,0
		c-6.031-6.031-6.031-15.844,0-21.875c6.047-6.031,15.844-6.031,21.891,0S273,260.906,266.953,266.938z" style="fill: rgb(252, 252, 252);"></path>
</g>
</svg>
